<svg width="1300" height="328" viewBox="0 0 1300 328" fill="none" xmlns="http://www.w3.org/2000/svg">
<g filter="url(#filter0_d)">
<path d="M82.1994 131C80.1994 119.2 73.1994 113.2 61.1994 113.2C56.5994 113.2 52.7994 114.4 49.7994 116.4C46.5994 118.4 44.1994 121.2 42.1994 124.4C40.1994 127.6 38.9994 131.2 38.1994 135.2C37.3994 139.2 36.9994 143 36.9994 146.8C36.9994 150.6 37.3994 154.4 38.1994 158.2C38.9994 162.2 40.1994 165.6 41.9994 168.8C43.7994 172 46.1994 174.4 49.3994 176.4C52.3994 178.4 56.1994 179.4 60.5994 179.4C67.3994 179.4 72.5994 177.6 76.1994 173.8C79.7994 170 82.1994 164.8 83.1994 158.4H110.599C108.599 172.2 103.399 182.6 94.5994 189.8C85.7994 197 74.3994 200.6 60.7994 200.6C52.9994 200.6 45.7994 199.4 39.3994 196.8C32.9994 194.2 27.3994 190.6 22.9994 185.8C18.3994 181.2 14.7994 175.6 12.3994 169.2C9.79938 162.8 8.59938 155.6 8.59938 147.8C8.59938 139.8 9.59937 132.4 11.9994 125.6C14.3994 118.8 17.7994 112.8 22.3994 107.8C26.7994 102.8 32.3994 98.7998 38.9994 95.9998C45.3994 93.1998 52.9994 91.7998 61.3994 91.7998C67.3994 91.7998 73.3994 92.5998 78.9994 94.1998C84.5994 95.7998 89.7994 98.3998 94.1994 101.6C98.5994 104.8 102.399 109 105.199 113.8C107.999 118.6 109.599 124.4 109.999 131H82.1994Z" fill="#E94546"/>
<path d="M151.843 146.4C151.843 150.6 152.243 154.6 153.043 158.6C153.843 162.6 155.043 166 157.043 169.2C159.043 172.4 161.643 174.8 164.843 176.6C168.043 178.6 172.043 179.4 176.843 179.4C181.643 179.4 185.643 178.6 188.843 176.6C192.043 174.8 194.643 172.4 196.643 169.2C198.643 166 199.843 162.6 200.843 158.6C201.643 154.6 202.043 150.6 202.043 146.4C202.043 142.4 201.643 138.2 200.843 134.2C200.043 130.2 198.643 126.8 196.643 123.6C194.643 120.6 192.043 118.2 188.843 116.2C185.643 114.2 181.643 113.4 176.843 113.2C172.043 113.2 168.043 114.2 164.843 116.2C161.643 118.2 159.043 120.6 157.043 123.6C155.043 126.8 153.843 130.2 153.043 134.2C152.243 138.2 151.843 142.4 151.843 146.4ZM123.443 146.4C123.443 138.2 124.643 130.8 127.243 124C129.643 117.2 133.243 111.6 138.043 106.8C142.643 102 148.243 98.3998 154.843 95.7998C161.243 93.1998 168.643 91.7998 176.843 91.7998C184.843 91.7998 192.243 93.1998 198.843 95.7998C205.443 98.3998 211.043 102 215.843 106.8C220.443 111.6 224.043 117.2 226.643 124C229.043 130.8 230.443 138.2 230.443 146.4C230.443 154.8 229.043 162.2 226.643 168.8C224.043 175.6 220.443 181.2 215.843 186C211.043 190.8 205.443 194.4 198.843 196.8C192.243 199.4 184.843 200.6 176.843 200.6C168.643 200.6 161.243 199.4 154.843 196.8C148.243 194.4 142.643 190.8 138.043 186C133.243 181.2 129.643 175.6 127.243 168.8C124.643 162.2 123.443 154.8 123.443 146.4Z" fill="#E94546"/>
<path d="M248.909 94.5998H275.909V109H276.509C280.109 103 284.709 98.7998 290.509 95.9998C296.109 93.1998 302.109 91.7998 308.109 91.7998C315.709 91.7998 321.909 92.9998 326.709 94.9998C331.509 96.9998 335.509 99.9998 338.309 103.6C341.109 107.2 342.909 111.8 344.109 117C345.309 122.2 345.909 128 345.909 134.4V198H317.509V139.6C317.509 131.2 316.109 124.8 313.509 120.6C310.709 116.4 306.109 114.2 299.309 114.2C291.509 114.2 285.909 116.6 282.509 121.2C278.909 125.8 277.309 133.4 277.309 143.8V198H248.909V94.5998Z" fill="#E94546"/>
<path d="M415.663 173.6C419.663 173.6 423.063 172.8 426.263 171.2C429.263 169.6 431.863 167.6 433.863 164.8C435.863 162.2 437.263 159.2 438.263 155.8C439.263 152.4 439.863 148.8 439.863 145C439.863 140.8 439.463 136.8 438.663 133C437.863 129.2 436.463 125.8 434.663 122.8C432.663 120 430.263 117.6 427.263 115.8C424.063 114.2 420.263 113.4 415.663 113.2C411.663 113.2 408.063 114 405.263 115.6C402.463 117.2 400.063 119.4 398.063 122.2C396.063 125 394.663 128 393.863 131.6C393.063 135.2 392.663 138.8 392.663 142.6C392.663 146.4 392.863 150.2 393.663 153.8C394.463 157.4 395.663 160.8 397.463 163.6C399.263 166.6 401.663 169 404.663 170.8C407.463 172.8 411.263 173.6 415.663 173.6ZM466.863 191.4C466.863 195.6 466.263 200.4 465.063 205.6C463.863 211 461.463 216 457.863 220.6C454.063 225.2 448.663 229 441.663 232.2C434.463 235.4 425.063 237 413.263 237C408.063 237 402.863 236.4 397.663 235.2C392.463 234 387.663 232 383.263 229.2C378.863 226.6 375.263 223.2 372.463 219C369.663 214.8 368.063 209.8 367.663 203.8H395.863C397.063 209.2 399.663 213 403.663 215C407.463 217 411.863 218 417.063 218C425.063 218 430.863 215.6 434.463 210.8C438.063 206 439.863 200 439.863 192.6V179H439.463C436.263 184.6 431.863 188.6 426.263 191.2C420.663 193.8 414.663 195 408.463 195C400.663 195 394.063 193.8 388.463 191C382.863 188.2 378.263 184.6 374.663 179.8C371.063 175 368.263 169.6 366.663 163.2C365.063 156.8 364.263 150.2 364.263 143C364.263 136.4 365.063 130 367.063 123.8C369.063 117.6 371.863 112.2 375.663 107.4C379.263 102.6 383.863 98.7998 389.463 95.9998C395.063 93.1998 401.463 91.7998 408.663 91.7998C415.463 91.7998 421.263 93.1998 426.463 95.5998C431.663 98.1998 435.863 102.4 439.463 108.4H439.863V94.5998H466.863V191.4Z" fill="#E94546"/>
<path d="M489.729 94.5998H516.729V113.8H517.129C518.329 110.8 520.129 107.8 522.529 105C524.729 102.2 527.329 99.9998 530.329 97.9998C533.129 95.9998 536.329 94.5998 539.729 93.3998C542.929 92.3998 546.529 91.9998 550.129 91.7998C551.929 91.7998 553.929 92.1998 556.329 92.7998V119.2C554.929 119 553.329 118.8 551.529 118.6C549.529 118.4 547.729 118.2 546.129 118.2C540.929 118.2 536.529 119.2 532.929 120.8C529.329 122.6 526.329 125 524.129 128C521.929 131 520.329 134.4 519.529 138.4C518.529 142.4 518.129 146.8 518.129 151.4V198H489.729V94.5998Z" fill="#E94546"/>
<path d="M618.863 81.7998H599.063L618.263 53.3998H649.663L618.863 81.7998ZM637.063 135.2C635.663 128 633.263 122.6 629.863 118.8C626.463 115.2 621.263 113.4 614.463 113.2C609.863 113.2 606.063 114 603.063 115.6C600.063 117.2 597.663 119 595.863 121.2C594.063 123.6 592.863 126 592.063 128.4C591.263 131 590.863 133.2 590.863 135.2H637.063ZM590.863 153.2C591.263 162.4 593.463 169.2 597.863 173.2C602.063 177.4 608.263 179.4 616.263 179.4C621.863 179.4 626.863 178 631.063 175.2C635.063 172.4 637.663 169.2 638.663 166H663.663C659.663 178.4 653.463 187.4 645.263 192.6C636.863 198 626.863 200.6 615.263 200.6C607.063 200.6 599.663 199.4 593.263 196.8C586.663 194.2 581.063 190.4 576.663 185.6C572.063 180.8 568.463 175.2 566.063 168.4C563.663 161.8 562.463 154.4 562.463 146.4C562.463 138.8 563.663 131.6 566.263 124.8C568.663 118.2 572.263 112.4 577.063 107.6C581.663 102.8 587.263 98.7998 593.663 95.9998C600.063 93.1998 607.263 91.7998 615.263 91.7998C624.063 91.7998 631.663 93.5998 638.263 96.9998C644.663 100.4 650.063 105 654.263 110.6C658.463 116.4 661.463 123 663.463 130.2C665.263 137.6 665.863 145.2 665.463 153.2H590.863Z" fill="#E94546"/>
<path d="M704.307 164.4C704.307 167.6 704.907 170.2 706.107 172.4C707.307 174.6 709.107 176.4 711.107 177.8C713.107 179.2 715.307 180.2 717.907 180.8C720.507 181.6 723.307 181.8 726.107 181.8C728.107 181.8 730.107 181.6 732.307 181.2C734.507 180.8 736.507 180 738.307 179C740.107 178 741.707 176.6 742.907 175C744.107 173.4 744.707 171.2 744.707 168.6C744.707 164.4 741.707 161.2 736.107 159C730.507 157 722.507 154.8 712.507 152.6C708.307 151.8 704.307 150.6 700.307 149.4C696.307 148.2 692.907 146.4 689.907 144.4C686.707 142.4 684.307 139.8 682.507 136.6C680.507 133.4 679.707 129.6 679.707 125C679.707 118.4 680.907 113 683.507 108.6C686.107 104.4 689.507 101 693.907 98.5998C698.107 96.1998 702.907 94.3998 708.307 93.3998C713.507 92.3998 719.107 91.7998 724.707 91.7998C730.307 91.7998 735.707 92.3998 740.907 93.3998C746.107 94.5998 750.907 96.3998 755.107 98.7998C759.107 101.4 762.507 104.8 765.307 109C768.107 113.2 769.707 118.4 770.307 124.8H743.307C742.907 119.4 740.707 115.8 737.107 113.8C733.307 111.8 728.907 111 723.907 110.8C722.307 110.8 720.507 111 718.707 111.2C716.707 111.4 715.107 111.8 713.507 112.4C711.907 113.2 710.707 114.2 709.707 115.4C708.507 116.6 708.107 118.4 708.107 120.4C707.907 123 708.907 125 710.907 126.6C712.707 128.2 715.107 129.6 718.107 130.6C721.107 131.6 724.507 132.4 728.507 133.2C732.307 134 736.307 135 740.307 135.8C744.307 136.8 748.307 138 752.307 139.2C756.307 140.6 759.707 142.4 762.907 144.6C765.907 146.8 768.307 149.6 770.307 152.8C772.107 156 773.107 160 773.107 164.8C773.107 171.6 771.707 177.4 768.907 182C766.107 186.6 762.707 190.2 758.307 193C753.907 195.8 748.707 197.8 743.107 199C737.507 200.2 731.707 200.6 725.907 200.6C719.907 200.6 713.907 200 708.307 198.8C702.507 197.6 697.307 195.6 692.907 192.8C688.507 190 684.707 186.4 681.907 181.8C679.107 177.2 677.507 171.4 677.307 164.4H704.307Z" fill="#E94546"/>
<path d="M26.1314 36.4778L2.44138 1.45776H21.1874L35.6074 24.9418L50.5424 1.45776H68.2584L44.6714 36.5808L70.3184 74.9998H51.0574L34.9894 49.5588L18.6124 74.9998H0.484375L26.1314 36.4778Z" fill="#E94546"/>
<path d="M94.8316 36.4778L71.1416 1.45776H89.8876L104.308 24.9418L119.243 1.45776H136.959L113.372 36.5808L139.019 74.9998H119.758L103.69 49.5588L87.3126 74.9998H69.1846L94.8316 36.4778Z" fill="#E94546"/>
<path d="M163.532 36.4778L139.842 1.45776H158.588L173.008 24.9418L187.943 1.45776H205.659L182.072 36.5808L207.719 74.9998H188.458L172.39 49.5588L156.013 74.9998H137.885L163.532 36.4778Z" fill="#E94546"/>
<path d="M248.403 74.9998H230.172L206.379 1.45776H222.962L239.339 53.1638H239.545L256.128 1.45776H272.814L248.403 74.9998Z" fill="#E94546"/>
<path d="M279.085 1.45776H295.256V74.9998H279.085V1.45776Z" fill="#E94546"/>
<path d="M309.462 1.45776H325.633V74.9998H309.462V1.45776Z" fill="#E94546"/>
<path d="M344.062 0.530762H360.233L370.121 15.1568H359.924L344.062 0.530762ZM374.138 42.6578C373.417 38.9498 372.181 36.1688 370.43 34.2118C368.679 32.3578 366.001 31.4308 362.499 31.3278C360.13 31.3278 358.173 31.7398 356.628 32.5638C355.083 33.3878 353.847 34.3148 352.92 35.4478C351.993 36.6838 351.375 37.9198 350.963 39.1558C350.551 40.4948 350.345 41.6278 350.345 42.6578H374.138ZM350.345 51.9278C350.551 56.6658 351.684 60.1678 353.95 62.2278C356.113 64.3908 359.306 65.4208 363.426 65.4208C366.31 65.4208 368.885 64.6998 371.048 63.2578C373.108 61.8158 374.447 60.1678 374.962 58.5198H387.837C385.777 64.9058 382.584 69.5408 378.361 72.2188C374.035 74.9998 368.885 76.3388 362.911 76.3388C358.688 76.3388 354.877 75.7208 351.581 74.3818C348.182 73.0428 345.298 71.0858 343.032 68.6138C340.663 66.1418 338.809 63.2578 337.573 59.7558C336.337 56.3568 335.719 52.5458 335.719 48.4258C335.719 44.5118 336.337 40.8038 337.676 37.3018C338.912 33.9028 340.766 30.9158 343.238 28.4438C345.607 25.9718 348.491 23.9118 351.787 22.4698C355.083 21.0278 358.791 20.3068 362.911 20.3068C367.443 20.3068 371.357 21.2338 374.756 22.9848C378.052 24.7358 380.833 27.1048 382.996 29.9888C385.159 32.9758 386.704 36.3748 387.734 40.0828C388.661 43.8938 388.97 47.8078 388.764 51.9278H350.345Z" fill="#E94546"/>
<path d="M495.799 221.6H522.799V236H523.399C526.999 230 531.599 225.8 537.399 223C542.999 220.2 548.999 218.8 554.999 218.8C562.599 218.8 568.799 220 573.599 222C578.399 224 582.399 227 585.199 230.6C587.999 234.2 589.799 238.8 590.999 244C592.199 249.2 592.799 255 592.799 261.4V325H564.399V266.6C564.399 258.2 562.999 251.8 560.399 247.6C557.599 243.4 552.999 241.2 546.199 241.2C538.399 241.2 532.799 243.6 529.399 248.2C525.799 252.8 524.199 260.4 524.199 270.8V325H495.799V221.6Z" fill="#E94546"/>
<path d="M613.154 253.4C613.554 246.8 615.154 241.2 618.154 236.8C620.954 232.4 624.754 229 629.354 226.2C633.754 223.6 638.954 221.8 644.554 220.6C650.154 219.4 655.954 218.8 661.754 218.8C666.954 218.8 672.154 219.2 677.554 220C682.754 220.8 687.754 222.2 692.154 224.2C696.554 226.4 700.154 229.4 702.954 233.2C705.754 237 707.154 242 707.154 248.2V302C707.154 306.8 707.354 311.2 707.954 315.4C708.354 319.8 709.354 323 710.754 325H681.954C681.354 323.4 680.954 321.8 680.554 320.2C680.154 318.6 679.954 316.8 679.954 315C675.354 319.8 669.954 323 663.954 324.8C657.754 326.8 651.554 327.6 645.154 327.6C640.154 327.6 635.554 327 631.354 325.8C626.954 324.6 623.354 322.8 620.154 320.2C616.954 317.8 614.354 314.6 612.554 310.6C610.754 306.8 609.954 302.2 609.954 296.8C609.954 291 610.954 286.2 612.954 282.4C614.954 278.6 617.754 275.6 620.954 273.2C624.154 271 627.954 269.4 632.154 268.2C636.354 267 640.554 266.2 644.954 265.4C649.154 264.8 653.354 264.2 657.554 263.8C661.554 263.4 665.354 262.8 668.554 262C671.754 261.4 674.154 260.2 676.154 258.6C677.954 257 678.754 254.8 678.754 251.8C678.754 248.8 678.154 246.4 677.154 244.6C676.154 242.8 674.754 241.4 673.154 240.4C671.554 239.4 669.554 238.8 667.354 238.4C665.154 238 662.754 238 660.354 237.8C654.754 237.8 650.354 239 647.154 241.4C643.954 243.8 641.954 247.8 641.554 253.4H613.154ZM678.754 274.4C677.554 275.6 675.954 276.4 674.154 277C672.354 277.6 670.354 278 668.354 278.4C666.354 278.8 664.154 279.2 661.954 279.4C659.554 279.8 657.354 280 655.154 280.4C652.954 280.8 650.754 281.4 648.754 282C646.754 282.8 644.954 283.6 643.354 284.8C641.754 286 640.554 287.4 639.754 289C638.754 290.8 638.354 293 638.354 295.6C638.354 298.2 638.754 300.4 639.754 302C640.554 303.8 641.954 305.2 643.554 306.2C645.154 307.2 646.954 307.8 649.154 308.2C651.154 308.6 653.354 308.8 655.754 308.8C661.354 308.8 665.554 308 668.754 306C671.754 304.2 673.954 302 675.554 299.4C676.954 296.8 677.754 294.2 678.154 291.4C678.554 288.8 678.554 286.6 678.754 285V274.4Z" fill="#E94546"/>
<path d="M799.598 258C797.598 246.2 790.598 240.2 778.598 240.2C773.998 240.2 770.198 241.4 767.198 243.4C763.998 245.4 761.598 248.2 759.598 251.4C757.598 254.6 756.398 258.2 755.598 262.2C754.798 266.2 754.398 270 754.398 273.8C754.398 277.6 754.798 281.4 755.598 285.2C756.398 289.2 757.598 292.6 759.398 295.8C761.198 299 763.598 301.4 766.798 303.4C769.798 305.4 773.598 306.4 777.998 306.4C784.798 306.4 789.998 304.6 793.598 300.8C797.198 297 799.598 291.8 800.598 285.4H827.998C825.998 299.2 820.798 309.6 811.998 316.8C803.198 324 791.798 327.6 778.198 327.6C770.398 327.6 763.198 326.4 756.798 323.8C750.398 321.2 744.798 317.6 740.398 312.8C735.798 308.2 732.198 302.6 729.798 296.2C727.198 289.8 725.998 282.6 725.998 274.8C725.998 266.8 726.998 259.4 729.398 252.6C731.798 245.8 735.198 239.8 739.798 234.8C744.198 229.8 749.798 225.8 756.398 223C762.798 220.2 770.398 218.8 778.798 218.8C784.798 218.8 790.798 219.6 796.398 221.2C801.998 222.8 807.198 225.4 811.598 228.6C815.998 231.8 819.798 236 822.598 240.8C825.398 245.6 826.998 251.4 827.398 258H799.598Z" fill="#E94546"/>
<path d="M873.242 205.6H844.842V182.2H873.242V205.6ZM844.842 221.6H873.242V325H844.842V221.6Z" fill="#E94546"/>
<path d="M920.804 273.4C920.804 277.6 921.204 281.6 922.004 285.6C922.804 289.6 924.004 293 926.004 296.2C928.004 299.4 930.604 301.8 933.804 303.6C937.004 305.6 941.004 306.4 945.804 306.4C950.604 306.4 954.604 305.6 957.804 303.6C961.004 301.8 963.604 299.4 965.604 296.2C967.604 293 968.804 289.6 969.804 285.6C970.604 281.6 971.004 277.6 971.004 273.4C971.004 269.4 970.604 265.2 969.804 261.2C969.004 257.2 967.604 253.8 965.604 250.6C963.604 247.6 961.004 245.2 957.804 243.2C954.604 241.2 950.604 240.4 945.804 240.2C941.004 240.2 937.004 241.2 933.804 243.2C930.604 245.2 928.004 247.6 926.004 250.6C924.004 253.8 922.804 257.2 922.004 261.2C921.204 265.2 920.804 269.4 920.804 273.4ZM892.404 273.4C892.404 265.2 893.604 257.8 896.204 251C898.604 244.2 902.204 238.6 907.004 233.8C911.604 229 917.204 225.4 923.804 222.8C930.204 220.2 937.604 218.8 945.804 218.8C953.804 218.8 961.204 220.2 967.804 222.8C974.404 225.4 980.004 229 984.804 233.8C989.404 238.6 993.004 244.2 995.604 251C998.004 257.8 999.404 265.2 999.404 273.4C999.404 281.8 998.004 289.2 995.604 295.8C993.004 302.6 989.404 308.2 984.804 313C980.004 317.8 974.404 321.4 967.804 323.8C961.204 326.4 953.804 327.6 945.804 327.6C937.604 327.6 930.204 326.4 923.804 323.8C917.204 321.4 911.604 317.8 907.004 313C902.204 308.2 898.604 302.6 896.204 295.8C893.604 289.2 892.404 281.8 892.404 273.4Z" fill="#E94546"/>
<path d="M1017.87 221.6H1044.87V236H1045.47C1049.07 230 1053.67 225.8 1059.47 223C1065.07 220.2 1071.07 218.8 1077.07 218.8C1084.67 218.8 1090.87 220 1095.67 222C1100.47 224 1104.47 227 1107.27 230.6C1110.07 234.2 1111.87 238.8 1113.07 244C1114.27 249.2 1114.87 255 1114.87 261.4V325H1086.47V266.6C1086.47 258.2 1085.07 251.8 1082.47 247.6C1079.67 243.4 1075.07 241.2 1068.27 241.2C1060.47 241.2 1054.87 243.6 1051.47 248.2C1047.87 252.8 1046.27 260.4 1046.27 270.8V325H1017.87V221.6Z" fill="#E94546"/>
<path d="M1135.22 253.4C1135.62 246.8 1137.22 241.2 1140.22 236.8C1143.02 232.4 1146.82 229 1151.42 226.2C1155.82 223.6 1161.02 221.8 1166.62 220.6C1172.22 219.4 1178.02 218.8 1183.82 218.8C1189.02 218.8 1194.22 219.2 1199.62 220C1204.82 220.8 1209.82 222.2 1214.22 224.2C1218.62 226.4 1222.22 229.4 1225.02 233.2C1227.82 237 1229.22 242 1229.22 248.2V302C1229.22 306.8 1229.42 311.2 1230.02 315.4C1230.42 319.8 1231.42 323 1232.82 325H1204.02C1203.42 323.4 1203.02 321.8 1202.62 320.2C1202.22 318.6 1202.02 316.8 1202.02 315C1197.42 319.8 1192.02 323 1186.02 324.8C1179.82 326.8 1173.62 327.6 1167.22 327.6C1162.22 327.6 1157.62 327 1153.42 325.8C1149.02 324.6 1145.42 322.8 1142.22 320.2C1139.02 317.8 1136.42 314.6 1134.62 310.6C1132.82 306.8 1132.02 302.2 1132.02 296.8C1132.02 291 1133.02 286.2 1135.02 282.4C1137.02 278.6 1139.82 275.6 1143.02 273.2C1146.22 271 1150.02 269.4 1154.22 268.2C1158.42 267 1162.62 266.2 1167.02 265.4C1171.22 264.8 1175.42 264.2 1179.62 263.8C1183.62 263.4 1187.42 262.8 1190.62 262C1193.82 261.4 1196.22 260.2 1198.22 258.6C1200.02 257 1200.82 254.8 1200.82 251.8C1200.82 248.8 1200.22 246.4 1199.22 244.6C1198.22 242.8 1196.82 241.4 1195.22 240.4C1193.62 239.4 1191.62 238.8 1189.42 238.4C1187.22 238 1184.82 238 1182.42 237.8C1176.82 237.8 1172.42 239 1169.22 241.4C1166.02 243.8 1164.02 247.8 1163.62 253.4H1135.22ZM1200.82 274.4C1199.62 275.6 1198.02 276.4 1196.22 277C1194.42 277.6 1192.42 278 1190.42 278.4C1188.42 278.8 1186.22 279.2 1184.02 279.4C1181.62 279.8 1179.42 280 1177.22 280.4C1175.02 280.8 1172.82 281.4 1170.82 282C1168.82 282.8 1167.02 283.6 1165.42 284.8C1163.82 286 1162.62 287.4 1161.82 289C1160.82 290.8 1160.42 293 1160.42 295.6C1160.42 298.2 1160.82 300.4 1161.82 302C1162.62 303.8 1164.02 305.2 1165.62 306.2C1167.22 307.2 1169.02 307.8 1171.22 308.2C1173.22 308.6 1175.42 308.8 1177.82 308.8C1183.42 308.8 1187.62 308 1190.82 306C1193.82 304.2 1196.02 302 1197.62 299.4C1199.02 296.8 1199.82 294.2 1200.22 291.4C1200.62 288.8 1200.62 286.6 1200.82 285V274.4Z" fill="#E94546"/>
<path d="M1252.07 182.2H1280.47V325H1252.07V182.2Z" fill="#E94546"/>
</g>
<defs>
<filter id="filter0_d" x="0.484375" y="0.530762" width="1298.98" height="327.069" filterUnits="userSpaceOnUse" color-interpolation-filters="sRGB">
<feFlood flood-opacity="0" result="BackgroundImageFix"/>
<feColorMatrix in="SourceAlpha" type="matrix" values="0 0 0 0 0 0 0 0 0 0 0 0 0 0 0 0 0 0 127 0"/>
<feOffset dx="19"/>
<feColorMatrix type="matrix" values="0 0 0 0 1 0 0 0 0 1 0 0 0 0 1 0 0 0 1 0"/>
<feBlend mode="normal" in2="BackgroundImageFix" result="effect1_dropShadow"/>
<feBlend mode="normal" in="SourceGraphic" in2="effect1_dropShadow" result="shape"/>
</filter>
</defs>
</svg>
