<svg id="svg" version="1.1" xmlns="http://www.w3.org/2000/svg" xmlns:xlink="http://www.w3.org/1999/xlink" width="400" height="178.65894408554243" viewBox="0, 0, 400,178.65894408554243"><g id="svgg"><path id="path0" d="M325.500 32.548 C 324.377 33.077,324.117 34.448,324.576 37.417 C 324.619 37.692,324.731 38.854,324.825 40.000 C 324.919 41.146,325.070 42.833,325.159 43.750 C 325.340 45.604,325.436 46.738,325.588 48.833 C 325.645 49.612,325.734 50.362,325.785 50.500 C 325.836 50.637,325.897 51.087,325.920 51.500 C 325.966 52.345,326.312 55.783,326.389 56.167 C 326.578 57.105,326.713 57.500,326.847 57.500 C 326.931 57.500,327.000 57.611,327.000 57.746 C 327.000 59.575,334.161 59.029,334.431 57.179 C 334.438 57.126,334.538 56.858,334.653 56.583 C 334.767 56.308,334.878 55.930,334.899 55.743 C 334.920 55.556,334.978 55.331,335.028 55.243 C 335.078 55.155,335.101 54.802,335.081 54.458 C 335.060 54.115,335.095 53.833,335.158 53.833 C 335.221 53.833,335.275 53.627,335.279 53.375 C 335.285 52.919,335.440 51.190,335.589 49.917 C 335.632 49.550,335.828 47.600,336.025 45.583 C 336.446 41.259,336.422 41.495,336.563 40.333 C 336.624 39.829,336.709 38.967,336.751 38.417 C 337.244 32.040,337.555 32.353,330.725 32.352 C 327.380 32.351,325.790 32.411,325.500 32.548 M349.434 34.202 C 348.338 34.600,347.635 35.670,347.414 37.276 C 347.256 38.428,347.204 38.773,346.996 40.083 C 346.894 40.725,346.779 41.475,346.741 41.750 C 346.703 42.025,346.632 42.438,346.583 42.667 C 346.535 42.896,346.462 43.329,346.421 43.630 C 346.381 43.930,346.309 44.238,346.262 44.315 C 346.214 44.391,346.138 44.895,346.091 45.435 C 346.044 45.975,345.844 47.279,345.647 48.333 C 345.449 49.387,345.261 50.475,345.228 50.750 C 345.195 51.025,345.133 51.438,345.091 51.667 C 345.049 51.896,344.933 52.608,344.833 53.250 C 344.734 53.892,344.539 55.110,344.402 55.958 C 343.873 59.213,344.272 59.827,347.294 60.409 C 347.487 60.446,347.800 60.560,347.989 60.661 C 348.178 60.762,348.333 60.810,348.333 60.767 C 348.333 60.725,348.577 60.762,348.875 60.851 C 350.254 61.261,351.292 61.228,351.726 60.760 C 352.125 60.330,353.329 58.060,353.313 57.769 C 353.309 57.687,353.368 57.575,353.444 57.519 C 353.583 57.417,354.364 55.353,354.744 54.083 C 354.854 53.717,355.004 53.267,355.078 53.083 C 355.651 51.659,356.182 50.203,356.567 49.000 C 356.816 48.221,357.058 47.471,357.104 47.333 C 357.150 47.196,357.177 47.054,357.163 47.019 C 357.149 46.983,357.201 46.908,357.277 46.852 C 357.428 46.742,357.807 45.717,358.853 42.588 C 359.220 41.491,359.600 40.497,359.697 40.380 C 359.795 40.263,359.831 40.167,359.778 40.167 C 359.725 40.167,359.782 39.881,359.905 39.532 C 360.604 37.551,359.033 35.767,356.422 35.577 C 356.327 35.570,356.137 35.521,356.000 35.468 C 355.708 35.356,354.818 35.107,353.417 34.745 C 352.867 34.603,352.304 34.455,352.167 34.415 C 350.622 33.970,350.169 33.935,349.434 34.202 M371.440 42.243 C 370.712 42.504,369.890 43.221,369.729 43.738 C 369.670 43.928,369.552 44.128,369.466 44.183 C 369.381 44.238,369.290 44.388,369.265 44.517 C 369.240 44.645,368.860 45.500,368.420 46.417 C 367.555 48.223,366.160 51.181,365.670 52.250 C 365.502 52.617,365.065 53.554,364.700 54.333 C 364.063 55.691,363.597 56.719,361.937 60.433 C 360.730 63.132,360.575 64.361,361.273 65.711 C 361.766 66.664,363.168 67.934,363.877 68.070 C 363.991 68.091,364.491 68.235,364.989 68.388 C 365.987 68.695,366.833 68.752,366.833 68.511 C 366.833 68.426,366.983 68.308,367.166 68.250 C 367.348 68.192,367.592 68.053,367.707 67.941 C 367.822 67.828,368.084 67.621,368.288 67.480 C 368.656 67.226,370.329 65.094,370.338 64.867 C 370.341 64.803,370.630 64.427,370.981 64.033 C 371.333 63.638,371.724 63.113,371.852 62.866 C 371.979 62.619,372.158 62.335,372.250 62.236 C 372.342 62.136,372.567 61.847,372.750 61.594 C 372.933 61.340,373.365 60.773,373.708 60.334 C 374.052 59.895,374.333 59.483,374.333 59.419 C 374.333 59.355,374.596 58.996,374.917 58.621 C 375.238 58.247,375.500 57.867,375.500 57.779 C 375.500 57.690,375.781 57.276,376.125 56.858 C 376.646 56.225,377.761 54.676,378.707 53.271 C 378.822 53.100,378.992 52.875,379.083 52.771 C 379.175 52.668,379.475 52.246,379.750 51.833 C 380.025 51.421,380.337 51.008,380.443 50.917 C 381.337 50.143,381.897 47.856,381.287 47.468 C 381.175 47.397,381.155 47.337,381.242 47.336 C 381.542 47.331,380.083 45.966,379.250 45.473 C 378.792 45.202,377.866 44.647,377.193 44.240 C 376.520 43.832,375.883 43.549,375.777 43.610 C 375.670 43.670,375.642 43.655,375.714 43.576 C 376.192 43.051,372.446 41.883,371.440 42.243 M390.764 55.292 C 390.639 55.416,390.554 55.440,390.084 55.479 C 389.750 55.507,388.536 56.617,388.251 57.154 C 388.126 57.390,387.699 57.932,387.303 58.359 C 386.907 58.786,386.358 59.409,386.083 59.744 C 385.808 60.080,385.471 60.483,385.333 60.642 C 384.937 61.098,382.597 63.896,382.457 64.082 C 382.387 64.174,382.102 64.512,381.824 64.833 C 381.545 65.154,381.082 65.750,380.795 66.157 C 380.508 66.565,380.043 67.135,379.761 67.424 C 379.172 68.031,378.653 68.649,378.027 69.491 C 377.784 69.817,377.491 70.143,377.376 70.217 C 377.261 70.290,377.167 70.442,377.167 70.555 C 377.167 70.667,377.035 70.879,376.875 71.026 C 375.780 72.027,374.774 73.683,374.590 74.786 C 374.467 75.523,375.483 76.764,377.420 78.241 C 377.744 78.489,378.139 78.823,378.297 78.985 C 378.639 79.336,380.093 80.333,380.263 80.333 C 380.385 80.333,381.784 79.256,382.083 78.931 C 382.175 78.831,382.533 78.539,382.879 78.280 C 383.225 78.022,383.675 77.647,383.879 77.446 C 384.083 77.246,384.586 76.820,384.997 76.500 C 385.408 76.179,385.866 75.804,386.015 75.667 C 386.164 75.529,386.573 75.192,386.922 74.917 C 387.272 74.642,387.911 74.117,388.342 73.750 C 388.774 73.383,389.417 72.847,389.772 72.559 C 390.127 72.270,390.754 71.755,391.167 71.414 C 391.579 71.073,392.251 70.522,392.660 70.189 C 393.069 69.856,393.579 69.415,393.793 69.208 C 394.007 69.002,394.247 68.833,394.327 68.833 C 394.407 68.833,394.497 68.775,394.528 68.704 C 394.558 68.633,395.258 68.016,396.083 67.333 C 396.908 66.650,397.790 65.883,398.043 65.629 C 398.296 65.375,398.572 65.167,398.657 65.167 C 398.741 65.167,398.982 64.923,399.191 64.625 C 399.401 64.327,399.669 63.984,399.786 63.863 C 400.089 63.552,400.050 62.999,399.686 62.417 C 399.205 61.647,394.003 56.500,393.707 56.500 C 393.637 56.500,393.485 56.347,393.368 56.160 C 393.251 55.973,393.083 55.865,392.995 55.920 C 392.906 55.975,392.833 55.952,392.833 55.868 C 392.833 55.587,390.984 55.072,390.764 55.292 " stroke="none" fill="#ec444c" fill-rule="evenodd"></path><path id="path1" d="M219.194 1.375 L 218.183 2.750 218.792 2.804 C 219.442 2.861,219.271 2.999,221.388 0.708 L 222.042 -0.000 221.124 -0.000 L 220.205 0.000 219.194 1.375 M196.513 3.941 C 190.696 5.977,190.749 16.261,196.586 18.242 C 200.410 19.541,204.173 17.325,204.757 13.431 L 204.871 12.667 204.121 12.667 C 203.385 12.667,203.368 12.679,203.255 13.292 C 202.543 17.159,198.353 18.569,195.501 15.901 C 193.213 13.761,193.143 8.559,195.373 6.378 C 197.776 4.029,202.019 4.778,202.991 7.722 C 203.182 8.302,204.667 8.723,204.667 8.197 C 204.667 5.123,200.038 2.707,196.513 3.941 M217.083 3.969 C 211.578 5.897,211.132 15.331,216.424 17.929 C 217.570 18.492,220.056 18.693,221.473 18.337 C 227.567 16.807,227.773 5.970,221.747 3.924 C 220.691 3.566,218.167 3.590,217.083 3.969 M268.362 3.914 C 264.729 5.048,262.874 10.277,264.589 14.552 C 266.794 20.053,275.106 19.848,276.333 14.263 C 276.726 12.473,276.775 12.642,275.884 12.699 C 275.094 12.750,275.091 12.753,274.973 13.446 C 274.467 16.432,271.361 18.079,268.568 16.844 C 264.342 14.975,264.516 6.771,268.813 5.257 C 271.253 4.397,274.358 5.751,274.780 7.858 C 274.869 8.301,274.929 8.333,275.670 8.333 L 276.465 8.333 276.310 7.645 C 275.631 4.626,271.818 2.835,268.362 3.914 M288.915 3.898 C 283.067 5.731,283.060 16.406,288.905 18.242 C 293.771 19.770,297.935 16.457,297.902 11.083 C 297.869 5.732,293.700 2.399,288.915 3.898 M112.667 11.083 L 112.667 18.333 113.417 18.333 L 114.167 18.333 114.167 14.917 L 114.167 11.500 117.583 11.500 L 121.000 11.500 121.000 10.833 L 121.000 10.167 117.583 10.167 L 114.167 10.167 114.167 7.667 L 114.167 5.167 118.000 5.167 L 121.833 5.167 121.833 4.500 L 121.833 3.833 117.250 3.833 L 112.667 3.833 112.667 11.083 M124.500 11.083 L 124.500 18.333 129.500 18.333 L 134.500 18.333 134.500 17.667 L 134.500 17.000 130.250 17.000 L 126.000 17.000 126.000 14.250 L 126.000 11.500 129.917 11.500 L 133.833 11.500 133.833 10.833 L 133.833 10.167 129.917 10.167 L 126.000 10.167 126.000 7.667 L 126.000 5.167 130.167 5.167 L 134.333 5.167 134.333 4.500 L 134.333 3.833 129.417 3.833 L 124.500 3.833 124.500 11.083 M137.333 11.083 L 137.333 18.333 140.208 18.330 C 146.822 18.324,148.739 16.715,148.747 11.167 C 148.754 5.509,146.767 3.833,140.053 3.833 L 137.333 3.833 137.333 11.083 M152.000 11.083 L 152.000 18.333 157.000 18.333 L 162.000 18.333 162.000 17.667 L 162.000 17.000 157.750 17.000 L 153.500 17.000 153.500 14.250 L 153.500 11.500 157.500 11.500 L 161.500 11.500 161.500 10.833 L 161.500 10.167 157.500 10.167 L 153.500 10.167 153.500 7.667 L 153.500 5.167 157.750 5.167 L 162.000 5.167 162.000 4.500 L 162.000 3.833 157.000 3.833 L 152.000 3.833 152.000 11.083 M164.833 11.083 L 164.833 18.333 165.583 18.333 L 166.333 18.333 166.333 15.157 L 166.333 11.980 169.514 12.032 L 172.695 12.083 173.173 12.618 C 173.753 13.268,173.955 13.977,174.092 15.833 C 174.261 18.128,174.364 18.333,175.346 18.333 C 175.797 18.333,176.166 18.315,176.164 18.292 C 176.163 18.269,176.054 17.950,175.921 17.583 C 175.789 17.217,175.678 16.548,175.674 16.097 C 175.654 13.862,175.032 12.025,174.175 11.670 C 173.534 11.404,173.540 11.335,174.250 10.875 C 176.295 9.550,176.366 6.242,174.382 4.731 C 173.386 3.972,172.460 3.833,168.408 3.833 L 164.833 3.833 164.833 11.083 M182.535 5.950 C 182.071 7.124,181.196 9.358,180.590 10.917 C 179.983 12.475,179.418 13.900,179.333 14.083 C 179.249 14.267,178.870 15.204,178.491 16.167 C 178.112 17.129,177.764 18.010,177.717 18.125 C 177.655 18.275,177.858 18.333,178.441 18.333 C 179.359 18.333,179.270 18.451,180.141 16.083 C 180.411 15.350,180.727 14.544,180.843 14.292 L 181.054 13.833 184.163 13.833 L 187.272 13.833 187.659 14.958 C 187.872 15.577,188.143 16.308,188.263 16.583 C 188.382 16.858,188.593 17.365,188.731 17.708 C 188.983 18.333,190.500 18.714,190.500 18.153 C 190.500 17.983,188.837 13.634,188.498 12.917 C 188.411 12.733,188.143 12.021,187.902 11.333 C 187.662 10.646,187.363 9.858,187.239 9.583 C 187.114 9.308,186.789 8.483,186.515 7.750 C 186.242 7.017,185.795 5.854,185.522 5.167 L 185.026 3.917 184.202 3.867 L 183.377 3.817 182.535 5.950 M208.000 11.083 L 208.000 18.333 208.750 18.333 L 209.500 18.333 209.500 11.083 L 209.500 3.833 208.750 3.833 L 208.000 3.833 208.000 11.083 M235.833 11.083 L 235.833 18.333 236.665 18.333 L 237.496 18.333 237.540 12.458 C 237.582 6.789,237.593 6.602,237.871 7.109 C 238.029 7.398,238.255 7.736,238.372 7.859 C 238.489 7.982,239.163 8.946,239.870 10.000 C 240.577 11.054,242.122 13.342,243.303 15.083 L 245.451 18.250 246.309 18.300 L 247.167 18.351 247.167 11.092 L 247.167 3.833 246.419 3.833 L 245.671 3.833 245.627 9.763 L 245.583 15.692 244.667 14.331 C 244.162 13.582,243.563 12.685,243.333 12.338 C 243.104 11.990,242.782 11.528,242.617 11.311 C 242.452 11.094,242.040 10.493,241.700 9.974 C 241.361 9.456,240.296 7.864,239.333 6.436 L 237.583 3.841 236.708 3.837 L 235.833 3.833 235.833 11.083 M254.853 4.542 C 254.687 4.931,254.454 5.550,254.337 5.917 C 254.219 6.283,254.069 6.658,254.002 6.750 C 253.936 6.842,253.673 7.479,253.419 8.167 C 253.165 8.854,252.858 9.642,252.737 9.917 C 252.615 10.192,252.021 11.692,251.415 13.250 C 250.810 14.808,250.172 16.394,249.998 16.773 C 249.341 18.208,249.360 18.333,250.237 18.333 C 250.823 18.333,251.035 18.263,251.113 18.042 C 251.170 17.881,251.346 17.450,251.505 17.083 C 251.664 16.717,251.966 15.929,252.175 15.333 C 252.739 13.729,252.480 13.833,255.917 13.833 L 258.959 13.833 259.313 14.656 C 259.507 15.108,259.667 15.525,259.667 15.581 C 259.667 15.637,259.902 16.280,260.190 17.008 L 260.714 18.333 261.524 18.333 C 261.969 18.333,262.333 18.293,262.333 18.244 C 262.333 18.195,261.996 17.295,261.583 16.244 C 261.171 15.193,260.493 13.452,260.076 12.375 C 259.660 11.298,259.249 10.267,259.163 10.083 C 259.077 9.900,258.809 9.188,258.568 8.500 C 258.326 7.813,257.999 6.950,257.840 6.583 C 257.681 6.217,257.381 5.448,257.172 4.875 L 256.793 3.833 255.974 3.833 C 255.169 3.833,255.150 3.845,254.853 4.542 M279.833 11.083 L 279.833 18.333 280.583 18.333 L 281.333 18.333 281.333 11.083 L 281.333 3.833 280.583 3.833 L 279.833 3.833 279.833 11.083 M301.000 11.075 L 301.000 18.333 301.748 18.333 L 302.496 18.333 302.540 12.404 L 302.583 6.475 303.449 7.779 C 303.925 8.496,305.109 10.246,306.080 11.667 C 307.051 13.088,308.461 15.169,309.213 16.292 L 310.581 18.333 311.457 18.333 L 312.333 18.333 312.333 11.083 L 312.333 3.833 311.583 3.833 L 310.833 3.833 310.833 9.760 C 310.833 13.194,310.771 15.648,310.685 15.594 C 310.603 15.544,309.817 14.433,308.938 13.126 C 308.058 11.819,306.300 9.213,305.030 7.333 L 302.721 3.917 301.861 3.866 L 301.000 3.816 301.000 11.075 M319.131 6.625 C 318.523 8.160,317.528 10.692,316.920 12.250 C 316.312 13.808,315.701 15.331,315.562 15.634 C 315.258 16.296,314.667 17.992,314.667 18.202 C 314.667 18.284,315.010 18.329,315.430 18.301 L 316.194 18.250 316.512 17.333 C 316.687 16.829,316.904 16.267,316.994 16.083 C 317.084 15.900,317.315 15.319,317.508 14.792 L 317.857 13.833 320.970 13.835 L 324.083 13.838 324.732 15.544 C 325.903 18.626,325.702 18.333,326.649 18.333 L 327.482 18.333 327.168 17.542 C 326.697 16.356,325.813 14.064,324.676 11.083 C 324.116 9.617,323.587 8.267,323.499 8.083 C 323.411 7.900,323.120 7.150,322.851 6.417 C 321.870 3.742,321.934 3.833,321.033 3.833 L 320.237 3.833 319.131 6.625 M329.667 11.074 L 329.667 18.333 334.417 18.333 L 339.167 18.333 339.167 17.667 L 339.167 17.000 335.252 17.000 L 331.337 17.000 331.294 10.458 L 331.250 3.917 330.458 3.866 L 329.667 3.815 329.667 11.074 M221.500 5.346 C 225.678 7.235,225.678 15.013,221.500 16.869 C 217.148 18.802,213.147 14.217,214.559 8.917 C 215.422 5.679,218.610 4.040,221.500 5.346 M293.333 5.346 C 297.362 7.168,297.331 15.083,293.288 16.841 C 288.209 19.051,284.038 12.822,286.920 7.333 C 287.964 5.346,291.149 4.359,293.333 5.346 M144.167 5.510 C 146.437 6.325,147.502 8.440,147.292 11.715 C 147.034 15.734,145.439 17.000,140.636 17.000 L 138.833 17.000 138.833 11.060 L 138.833 5.121 141.208 5.211 C 142.515 5.260,143.846 5.395,144.167 5.510 M172.902 5.500 C 174.368 6.256,174.694 8.614,173.497 9.810 C 172.794 10.514,171.995 10.667,169.022 10.667 L 166.333 10.667 166.333 7.903 L 166.333 5.140 169.375 5.195 C 171.666 5.236,172.536 5.312,172.902 5.500 M44.368 5.790 C 44.982 5.822,46.032 5.822,46.701 5.791 C 47.370 5.759,46.867 5.733,45.583 5.732 C 44.300 5.732,43.753 5.758,44.368 5.790 M184.930 7.715 C 185.088 8.193,185.543 9.430,185.942 10.466 C 186.340 11.501,186.667 12.382,186.667 12.424 C 186.667 12.466,185.496 12.500,184.066 12.500 C 181.654 12.500,181.473 12.479,181.583 12.208 C 182.165 10.778,183.586 7.088,183.799 6.454 L 184.066 5.658 184.355 6.253 C 184.514 6.580,184.773 7.238,184.930 7.715 M257.635 10.250 L 258.447 12.417 255.950 12.463 C 254.577 12.488,253.417 12.473,253.373 12.429 C 253.329 12.384,253.667 11.389,254.125 10.216 C 254.583 9.043,255.014 7.896,255.083 7.667 C 255.151 7.438,255.264 7.175,255.332 7.083 C 255.401 6.992,255.550 6.625,255.665 6.270 L 255.874 5.622 256.348 6.853 C 256.609 7.530,257.188 9.058,257.635 10.250 M321.631 7.292 C 321.918 8.094,322.454 9.575,322.823 10.583 C 323.191 11.592,323.494 12.435,323.496 12.458 C 323.498 12.481,322.345 12.500,320.934 12.500 L 318.368 12.500 318.938 10.958 C 319.252 10.110,319.607 9.192,319.729 8.917 C 319.850 8.642,320.156 7.835,320.408 7.125 C 320.980 5.515,320.996 5.517,321.631 7.292 M150.917 24.408 C 150.825 24.444,150.401 24.521,149.975 24.578 C 148.256 24.809,146.879 26.314,146.713 28.142 C 146.490 30.601,147.601 31.520,152.078 32.579 C 154.817 33.227,155.833 33.972,155.833 35.333 C 155.833 39.077,148.562 38.936,147.822 35.178 L 147.623 34.167 146.873 34.167 L 146.124 34.167 146.240 35.196 C 146.440 36.962,147.262 38.130,148.833 38.881 C 149.950 39.415,153.889 39.422,155.000 38.893 C 157.728 37.592,158.236 33.904,155.900 32.357 C 155.062 31.802,154.791 31.710,151.389 30.825 C 148.336 30.031,147.394 28.832,148.527 27.182 C 150.237 24.691,155.329 25.708,155.333 28.542 C 155.333 28.974,155.376 29.000,156.083 29.000 L 156.833 29.000 156.833 28.352 C 156.833 26.880,155.316 25.104,153.694 24.678 C 152.977 24.490,151.157 24.313,150.917 24.408 M251.701 24.519 C 249.176 24.939,247.646 27.271,248.331 29.657 C 248.718 31.007,249.857 31.650,253.414 32.523 C 256.581 33.301,257.443 33.970,257.292 35.533 C 256.979 38.796,249.957 38.887,249.429 35.635 C 249.380 35.332,249.320 34.896,249.295 34.667 C 249.256 34.304,249.158 34.243,248.542 34.199 L 247.833 34.148 247.837 35.115 C 247.848 37.969,249.997 39.455,253.889 39.300 C 257.344 39.163,258.833 37.897,258.833 35.099 C 258.833 32.890,257.711 32.013,253.586 31.000 C 250.067 30.135,249.421 29.614,249.742 27.900 C 250.324 24.797,256.365 25.179,256.790 28.347 L 256.877 29.000 257.673 29.000 L 258.468 29.000 258.377 28.292 C 258.015 25.489,255.252 23.928,251.701 24.519 M112.667 31.936 L 112.667 39.205 116.042 39.130 C 122.342 38.991,124.081 37.430,124.081 31.917 C 124.081 26.316,122.148 24.676,115.542 24.670 L 112.667 24.667 112.667 31.936 M127.867 25.792 C 127.912 26.814,127.951 26.922,128.292 26.970 C 128.864 27.051,128.699 28.172,128.059 28.550 C 127.759 28.727,127.760 29.667,128.061 29.667 C 128.974 29.667,129.666 28.293,129.789 26.237 L 129.882 24.667 128.850 24.667 L 127.818 24.667 127.867 25.792 M134.000 31.917 L 134.000 39.167 139.000 39.167 L 144.000 39.167 144.000 38.500 L 144.000 37.833 139.750 37.833 L 135.500 37.833 135.500 35.083 L 135.500 32.333 139.500 32.333 L 143.500 32.333 143.500 31.667 L 143.500 31.000 139.500 31.000 L 135.500 31.000 135.500 28.500 L 135.500 26.000 139.750 26.000 L 144.000 26.000 144.000 25.333 L 144.000 24.667 139.000 24.667 L 134.000 24.667 134.000 31.917 M159.000 25.333 L 159.000 26.000 161.417 26.000 L 163.833 26.000 163.833 32.583 L 163.833 39.167 164.667 39.167 L 165.500 39.167 165.500 32.583 L 165.500 26.000 167.917 26.000 L 170.333 26.000 170.333 25.333 L 170.333 24.667 164.667 24.667 L 159.000 24.667 159.000 25.333 M172.531 30.125 L 172.583 35.583 173.016 36.500 C 174.819 40.324,181.189 40.453,183.036 36.702 L 183.583 35.592 183.633 30.129 L 183.684 24.667 182.925 24.667 L 182.167 24.667 182.167 29.599 C 182.167 36.936,181.661 37.986,178.120 37.996 C 176.123 38.002,175.309 37.569,174.524 36.083 L 174.083 35.250 174.031 29.958 L 173.979 24.667 173.229 24.667 L 172.479 24.667 172.531 30.125 M187.333 31.917 L 187.333 39.167 190.042 39.166 C 196.715 39.163,198.833 37.414,198.833 31.907 C 198.833 26.414,196.763 24.676,190.208 24.670 L 187.333 24.667 187.333 31.917 M202.167 31.917 L 202.167 39.167 202.917 39.167 L 203.667 39.167 203.667 31.917 L 203.667 24.667 202.917 24.667 L 202.167 24.667 202.167 31.917 M211.180 26.125 C 210.872 26.927,210.523 27.808,210.404 28.083 C 210.285 28.358,209.394 30.608,208.424 33.083 C 207.454 35.558,206.512 37.904,206.330 38.296 C 205.897 39.231,205.872 39.192,206.861 39.134 L 207.721 39.083 208.363 37.333 C 208.716 36.371,209.086 35.377,209.185 35.125 L 209.366 34.667 212.494 34.667 L 215.622 34.667 215.996 35.708 C 216.202 36.281,216.473 36.975,216.598 37.250 C 216.724 37.525,216.929 38.050,217.054 38.417 C 217.272 39.053,217.317 39.086,218.058 39.134 C 219.024 39.197,219.013 38.711,217.999 36.583 C 217.911 36.400,217.617 35.650,217.345 34.917 C 216.327 32.173,215.651 30.406,215.496 30.083 C 215.408 29.900,215.067 29.037,214.739 28.167 C 214.410 27.296,213.979 26.152,213.779 25.625 L 213.417 24.667 212.579 24.667 L 211.741 24.667 211.180 26.125 M221.167 31.908 L 221.167 39.167 221.915 39.167 L 222.662 39.167 222.706 33.220 L 222.750 27.274 224.329 29.595 C 227.246 33.882,228.162 35.240,229.459 37.202 L 230.750 39.154 231.625 39.160 L 232.500 39.167 232.500 31.917 L 232.500 24.667 231.752 24.667 L 231.004 24.667 230.960 30.618 L 230.917 36.568 229.577 34.576 C 228.419 32.854,226.531 30.068,223.667 25.853 L 222.917 24.750 222.042 24.700 L 221.167 24.649 221.167 31.908 M234.833 25.333 L 234.833 26.000 237.250 26.000 L 239.667 26.000 239.667 32.583 L 239.667 39.167 240.417 39.167 L 241.167 39.167 241.167 32.583 L 241.167 26.000 243.583 26.000 L 246.000 26.000 246.000 25.333 L 246.000 24.667 240.417 24.667 L 234.833 24.667 234.833 25.333 M119.071 26.250 C 121.609 26.788,122.578 28.357,122.570 31.917 C 122.560 36.380,121.312 37.596,116.542 37.785 L 114.167 37.879 114.167 31.940 L 114.167 26.000 116.042 26.003 C 117.073 26.004,118.436 26.116,119.071 26.250 M194.333 26.340 C 196.484 27.107,197.504 29.289,197.286 32.657 C 197.039 36.471,195.680 37.617,191.208 37.788 L 188.833 37.879 188.833 31.917 L 188.833 25.955 191.292 26.044 C 192.644 26.093,194.012 26.226,194.333 26.340 M212.788 27.125 C 212.899 27.377,213.133 28.000,213.308 28.509 C 213.483 29.019,213.944 30.279,214.332 31.310 C 214.720 32.341,215.002 33.220,214.959 33.264 C 214.915 33.307,213.750 33.322,212.369 33.296 L 209.858 33.250 210.480 31.667 C 210.822 30.796,211.397 29.315,211.759 28.376 C 212.486 26.489,212.499 26.472,212.788 27.125 M76.991 36.458 L 76.417 37.083 77.042 36.509 C 77.385 36.193,77.667 35.912,77.667 35.884 C 77.667 35.757,77.526 35.877,76.991 36.458 M75.658 37.792 L 75.083 38.417 75.708 37.842 C 76.052 37.526,76.333 37.245,76.333 37.217 C 76.333 37.090,76.192 37.210,75.658 37.792 M74.406 39.042 L 73.917 39.583 74.458 39.094 C 74.963 38.638,75.077 38.500,74.948 38.500 C 74.919 38.500,74.675 38.744,74.406 39.042 M73.158 40.292 L 72.583 40.917 73.208 40.342 C 73.552 40.026,73.833 39.745,73.833 39.717 C 73.833 39.590,73.692 39.710,73.158 40.292 M71.824 41.625 L 71.250 42.250 71.875 41.676 C 72.219 41.360,72.500 41.078,72.500 41.051 C 72.500 40.923,72.359 41.043,71.824 41.625 M70.573 42.875 L 70.083 43.417 70.625 42.927 C 70.923 42.658,71.167 42.414,71.167 42.385 C 71.167 42.257,71.029 42.370,70.573 42.875 M67.906 45.542 L 67.417 46.083 67.958 45.594 C 68.463 45.138,68.577 45.000,68.448 45.000 C 68.419 45.000,68.175 45.244,67.906 45.542 M151.417 45.325 C 150.598 45.502,149.334 45.998,149.332 46.143 C 149.332 46.202,149.062 46.433,148.734 46.657 C 146.229 48.363,145.501 54.006,147.381 57.144 C 149.590 60.832,155.266 61.287,157.670 57.969 C 158.074 57.411,159.000 54.961,159.000 54.450 C 159.000 54.386,158.635 54.333,158.188 54.333 L 157.376 54.333 157.267 55.014 C 156.722 58.424,152.924 59.988,150.080 57.973 C 147.153 55.899,147.030 50.022,149.863 47.597 C 152.130 45.656,156.011 46.527,156.957 49.189 C 157.242 49.992,157.252 50.000,157.977 50.000 L 158.709 50.000 158.596 49.292 C 158.158 46.550,154.671 44.624,151.417 45.325 M112.667 52.750 L 112.667 60.000 115.208 59.997 C 122.240 59.988,124.487 57.949,124.116 51.917 C 123.813 46.984,121.857 45.500,115.658 45.500 L 112.667 45.500 112.667 52.750 M127.333 52.750 L 127.333 60.000 132.333 60.000 L 137.333 60.000 137.333 59.333 L 137.333 58.667 133.083 58.667 L 128.833 58.667 128.833 55.917 L 128.833 53.167 132.750 53.167 L 136.667 53.167 136.667 52.500 L 136.667 51.833 132.750 51.833 L 128.833 51.833 128.833 49.333 L 128.833 46.833 133.083 46.833 L 137.333 46.833 137.333 46.167 L 137.333 45.500 132.333 45.500 L 127.333 45.500 127.333 52.750 M165.722 46.458 C 165.523 46.985,165.046 48.204,164.663 49.167 C 164.280 50.129,163.710 51.592,163.398 52.417 C 163.085 53.242,162.752 54.053,162.657 54.219 C 162.561 54.386,162.260 55.136,161.986 55.886 C 161.712 56.636,161.375 57.492,161.238 57.788 C 160.926 58.460,160.500 59.657,160.500 59.863 C 160.500 59.949,160.844 59.995,161.263 59.967 L 162.027 59.917 162.665 58.300 C 163.015 57.410,163.390 56.417,163.497 56.091 L 163.693 55.500 166.815 55.500 L 169.938 55.500 170.278 56.292 C 170.466 56.727,170.865 57.740,171.165 58.542 L 171.711 60.000 172.522 60.000 C 172.968 60.000,173.333 59.970,173.333 59.933 C 173.333 59.838,171.857 55.984,171.667 55.583 C 171.580 55.400,171.287 54.650,171.017 53.917 C 170.212 51.738,169.332 49.451,169.093 48.917 C 168.969 48.642,168.680 47.892,168.449 47.250 C 168.218 46.608,167.977 45.952,167.914 45.792 C 167.824 45.567,167.602 45.500,166.941 45.500 L 166.083 45.500 165.722 46.458 M172.667 46.167 L 172.667 46.833 175.167 46.833 L 177.667 46.833 177.667 53.417 L 177.667 60.000 178.417 60.000 L 179.167 60.000 179.167 53.417 L 179.167 46.833 181.583 46.833 L 184.000 46.833 184.000 46.167 L 184.000 45.500 178.333 45.500 L 172.667 45.500 172.667 46.167 M189.054 45.783 C 188.824 46.420,187.311 50.267,187.166 50.583 C 187.082 50.767,186.521 52.192,185.921 53.750 C 185.320 55.308,184.710 56.846,184.564 57.166 C 184.288 57.774,183.500 59.826,183.500 59.937 C 183.500 59.971,183.856 59.998,184.292 59.996 L 185.083 59.992 185.735 58.288 C 186.094 57.350,186.483 56.340,186.602 56.042 L 186.816 55.500 189.917 55.500 L 193.017 55.500 193.284 56.125 C 193.430 56.469,193.821 57.462,194.151 58.333 L 194.751 59.917 195.542 59.967 C 196.381 60.021,196.531 59.839,196.166 59.206 C 196.075 59.047,195.780 58.317,195.511 57.583 C 195.242 56.850,194.637 55.275,194.167 54.083 C 193.698 52.892,193.134 51.429,192.916 50.833 C 192.698 50.237,192.157 48.813,191.715 47.667 L 190.911 45.583 190.037 45.533 C 189.318 45.491,189.144 45.536,189.054 45.783 M198.667 52.753 L 198.667 60.005 203.375 59.961 L 208.083 59.917 208.135 59.292 L 208.187 58.667 204.177 58.667 L 200.167 58.667 200.167 52.083 L 200.167 45.500 199.417 45.500 L 198.667 45.500 198.667 52.753 M210.333 50.492 C 210.333 56.747,210.465 57.490,211.800 58.778 C 213.896 60.799,218.468 60.602,220.262 58.413 C 221.272 57.180,221.333 56.746,221.333 50.807 L 221.333 45.500 220.583 45.500 L 219.833 45.500 219.826 50.708 C 219.816 57.808,219.455 58.623,216.245 58.801 C 212.424 59.013,211.833 57.897,211.833 50.470 L 211.833 45.500 211.083 45.500 L 210.333 45.500 210.333 50.492 M225.167 52.750 L 225.167 60.000 225.917 60.000 L 226.667 60.000 226.667 54.157 C 226.667 50.943,226.726 48.350,226.799 48.395 C 226.872 48.440,227.528 49.356,228.257 50.430 C 228.987 51.504,230.584 53.853,231.807 55.650 C 233.031 57.447,234.182 59.160,234.366 59.458 C 234.669 59.950,234.774 60.000,235.516 60.000 L 236.333 60.000 236.333 52.750 L 236.333 45.500 235.585 45.500 L 234.838 45.500 234.794 51.375 L 234.750 57.250 233.462 55.333 C 231.348 52.186,229.696 49.761,229.546 49.583 C 229.469 49.492,228.820 48.535,228.105 47.458 L 226.803 45.500 225.985 45.500 L 225.167 45.500 225.167 52.750 M238.667 45.587 C 238.667 45.714,240.529 48.611,243.605 53.267 L 244.167 54.118 244.167 57.059 L 244.167 60.000 244.917 60.000 L 245.667 60.000 245.667 56.981 L 245.667 53.961 247.830 50.689 C 249.020 48.889,250.061 47.336,250.144 47.237 C 250.378 46.955,251.167 45.683,251.167 45.587 C 251.167 45.539,250.773 45.501,250.292 45.501 L 249.417 45.503 248.758 46.543 C 246.316 50.402,245.160 52.196,244.988 52.393 C 244.920 52.472,244.510 51.984,244.077 51.310 C 243.069 49.741,242.442 48.768,241.268 46.958 L 240.322 45.500 239.494 45.500 C 239.039 45.500,238.667 45.539,238.667 45.587 M255.174 47.792 C 254.685 49.052,254.188 50.308,254.069 50.583 C 253.949 50.858,253.428 52.171,252.910 53.500 C 252.392 54.829,251.638 56.754,251.234 57.777 C 250.332 60.064,250.331 60.000,251.254 60.000 C 251.925 60.000,252.027 59.950,252.174 59.542 C 252.266 59.290,252.652 58.277,253.032 57.292 L 253.723 55.500 256.839 55.500 L 259.954 55.500 260.625 57.208 C 260.994 58.148,261.367 59.142,261.453 59.417 C 261.592 59.860,263.333 60.347,263.333 59.943 C 263.333 59.902,263.033 59.112,262.667 58.187 C 262.300 57.262,262.000 56.459,262.000 56.403 C 262.000 56.346,261.891 56.064,261.758 55.775 C 261.624 55.486,261.171 54.350,260.750 53.250 C 260.329 52.150,259.622 50.313,259.179 49.167 C 258.736 48.021,258.242 46.727,258.081 46.292 L 257.788 45.500 256.925 45.500 L 256.063 45.500 255.174 47.792 M119.257 47.090 C 121.480 47.666,122.421 49.068,122.607 52.083 C 122.895 56.752,121.336 58.411,116.467 58.620 L 114.167 58.718 114.167 52.776 L 114.167 46.833 116.215 46.833 C 117.520 46.833,118.624 46.927,119.257 47.090 M167.838 49.750 C 167.928 49.933,168.180 50.608,168.398 51.250 C 168.616 51.892,168.953 52.810,169.145 53.292 L 169.495 54.167 166.914 54.167 C 165.345 54.167,164.333 54.103,164.333 54.004 C 164.333 53.824,165.075 51.779,165.332 51.250 C 165.421 51.067,165.712 50.317,165.979 49.583 C 166.246 48.850,166.563 48.036,166.683 47.775 L 166.902 47.300 167.289 48.359 C 167.501 48.940,167.749 49.567,167.838 49.750 M190.466 48.583 C 190.655 49.133,191.157 50.483,191.583 51.583 C 192.008 52.683,192.398 53.715,192.448 53.875 C 192.532 54.144,192.339 54.167,189.936 54.167 C 188.505 54.167,187.334 54.148,187.334 54.125 C 187.335 54.086,187.728 53.047,189.116 49.417 C 189.431 48.592,189.732 47.780,189.784 47.614 C 189.913 47.198,190.065 47.414,190.466 48.583 M258.746 52.333 C 258.910 52.837,259.098 53.325,259.163 53.417 C 259.686 54.151,259.636 54.167,256.845 54.167 L 254.201 54.167 254.788 52.625 C 255.111 51.777,255.659 50.318,256.006 49.383 C 256.353 48.448,256.691 47.596,256.757 47.489 C 256.867 47.310,258.041 50.167,258.746 52.333 M85.075 69.875 L 84.417 70.583 85.125 69.925 C 85.784 69.312,85.910 69.167,85.784 69.167 C 85.757 69.167,85.438 69.485,85.075 69.875 M216.377 69.453 C 216.631 69.491,217.006 69.490,217.211 69.451 C 217.416 69.411,217.208 69.380,216.750 69.381 C 216.292 69.382,216.124 69.415,216.377 69.453 M109.292 69.618 C 109.498 69.657,109.835 69.657,110.042 69.618 C 110.248 69.578,110.079 69.545,109.667 69.545 C 109.254 69.545,109.085 69.578,109.292 69.618 M114.794 69.618 C 115.001 69.658,115.301 69.656,115.460 69.615 C 115.620 69.573,115.450 69.540,115.083 69.542 C 114.717 69.544,114.586 69.578,114.794 69.618 M212.875 69.615 C 213.035 69.657,213.298 69.657,213.458 69.615 C 213.619 69.573,213.487 69.539,213.167 69.539 C 212.846 69.539,212.715 69.573,212.875 69.615 M334.375 69.615 C 334.535 69.657,334.798 69.657,334.958 69.615 C 335.119 69.573,334.987 69.539,334.667 69.539 C 334.346 69.539,334.215 69.573,334.375 69.615 M72.498 82.292 L 69.917 84.917 72.542 82.335 C 74.980 79.937,75.242 79.667,75.123 79.667 C 75.099 79.667,73.918 80.848,72.498 82.292 M295.410 83.708 L 294.583 84.583 295.458 83.756 C 295.940 83.301,296.333 82.908,296.333 82.881 C 296.333 82.757,296.179 82.895,295.410 83.708 M252.000 83.219 C 252.000 83.248,252.244 83.491,252.542 83.760 L 253.083 84.250 252.594 83.708 C 252.138 83.203,252.000 83.090,252.000 83.219 M293.740 85.375 L 293.250 85.917 293.792 85.427 C 294.297 84.971,294.410 84.833,294.281 84.833 C 294.252 84.833,294.009 85.077,293.740 85.375 M68.163 86.625 L 66.750 88.083 68.208 86.670 C 69.563 85.358,69.743 85.167,69.621 85.167 C 69.596 85.167,68.940 85.823,68.163 86.625 M23.217 100.167 C 23.217 100.671,23.248 100.877,23.286 100.625 C 23.324 100.373,23.324 99.960,23.286 99.708 C 23.248 99.456,23.217 99.662,23.217 100.167 M197.991 99.958 L 197.417 100.583 198.042 100.009 C 198.623 99.474,198.743 99.333,198.616 99.333 C 198.588 99.333,198.307 99.615,197.991 99.958 M65.555 102.750 C 65.555 103.392,65.586 103.634,65.622 103.288 C 65.658 102.942,65.657 102.417,65.620 102.121 C 65.583 101.825,65.554 102.108,65.555 102.750 M204.542 109.958 C 211.577 109.982,223.090 109.982,230.125 109.958 C 237.160 109.934,231.404 109.915,217.333 109.915 C 203.262 109.915,197.506 109.934,204.542 109.958 M278.381 122.583 C 278.382 123.042,278.415 123.209,278.453 122.956 C 278.491 122.703,278.490 122.328,278.451 122.123 C 278.411 121.918,278.380 122.125,278.381 122.583 M181.083 163.000 C 181.628 163.550,182.110 164.000,182.156 164.000 C 182.202 164.000,181.794 163.550,181.250 163.000 C 180.706 162.450,180.223 162.000,180.177 162.000 C 180.131 162.000,180.539 162.450,181.083 163.000 M294.160 162.708 C 294.850 163.444,295.000 163.577,295.000 163.451 C 295.000 163.425,294.644 163.068,294.208 162.660 L 293.417 161.917 294.160 162.708 M365.073 165.042 L 364.583 165.583 365.125 165.094 C 365.630 164.638,365.743 164.500,365.615 164.500 C 365.586 164.500,365.342 164.744,365.073 165.042 M132.875 175.782 C 133.035 175.823,133.298 175.823,133.458 175.782 C 133.619 175.740,133.487 175.705,133.167 175.705 C 132.846 175.705,132.715 175.740,132.875 175.782 " stroke="none" fill="#040404" fill-rule="evenodd"></path><path id="path2" d="M65.562 122.583 C 65.563 123.592,65.590 123.983,65.623 123.452 C 65.657 122.922,65.656 122.097,65.623 121.619 C 65.589 121.141,65.562 121.575,65.562 122.583 M237.375 124.448 C 237.535 124.490,237.798 124.490,237.958 124.448 C 238.119 124.406,237.987 124.372,237.667 124.372 C 237.346 124.372,237.215 124.406,237.375 124.448 " stroke="none" fill="#242424" fill-rule="evenodd"></path><path id="path3" d="M40.417 6.016 C 34.160 6.612,28.268 8.206,23.250 10.659 C 20.094 12.203,16.333 14.615,16.687 14.868 C 16.865 14.995,16.852 15.011,16.627 14.938 C 16.055 14.755,10.727 19.530,10.927 20.049 C 10.979 20.187,10.943 20.349,10.847 20.408 C 10.735 20.478,10.711 20.408,10.783 20.217 C 10.978 19.697,10.429 20.248,9.105 21.902 C 4.617 27.508,1.722 34.014,0.583 41.058 C 0.501 41.561,0.526 41.672,0.698 41.571 C 0.818 41.500,0.790 41.588,0.635 41.765 C -0.002 42.494,-0.017 44.234,0.034 110.639 L 0.083 174.862 0.551 175.264 L 1.019 175.667 11.434 175.667 C 22.681 175.667,22.529 175.678,23.037 174.790 C 23.512 173.959,23.418 98.997,22.942 99.282 C 22.798 99.369,22.797 99.338,22.940 99.157 C 23.059 99.007,23.156 97.855,23.199 96.083 C 23.311 91.426,22.837 91.698,30.848 91.700 C 36.119 91.701,37.084 91.662,38.011 91.411 L 39.083 91.121 48.333 81.852 C 58.899 71.265,59.684 70.447,60.147 69.538 L 60.486 68.875 59.868 68.772 C 58.135 68.486,27.667 68.662,27.664 68.958 C 27.663 69.138,27.615 69.180,27.539 69.067 C 27.472 68.966,26.833 68.836,26.120 68.777 C 23.425 68.555,23.242 68.255,23.274 64.088 C 23.312 59.025,23.729 47.314,23.888 46.833 C 23.933 46.696,24.058 45.871,24.165 45.000 C 24.418 42.945,24.741 41.516,25.267 40.130 C 25.501 39.514,25.680 38.960,25.665 38.898 C 25.650 38.837,25.704 38.741,25.785 38.685 C 26.082 38.479,26.667 37.302,26.560 37.128 C 26.496 37.025,26.526 36.996,26.631 37.061 C 26.734 37.125,27.025 36.866,27.304 36.459 C 28.511 34.705,31.571 32.266,34.079 31.059 C 34.769 30.727,35.333 30.386,35.333 30.301 C 35.333 30.216,35.402 30.189,35.485 30.241 C 35.817 30.446,38.185 29.420,37.960 29.168 C 37.781 28.968,37.793 28.965,38.038 29.151 C 38.310 29.356,39.304 29.242,40.333 28.888 C 42.666 28.085,49.750 28.682,53.917 30.033 C 54.833 30.330,55.733 30.557,55.917 30.536 C 56.130 30.512,56.178 30.546,56.049 30.630 C 55.920 30.714,56.280 30.969,57.049 31.337 C 57.709 31.654,58.288 31.956,58.333 32.010 C 58.379 32.063,58.831 32.410,59.338 32.781 C 61.688 34.502,63.604 37.346,64.427 40.333 C 64.592 40.929,64.769 41.454,64.821 41.500 C 64.874 41.546,64.917 41.696,64.917 41.833 C 64.917 42.456,65.570 46.167,65.679 46.167 C 65.747 46.167,65.763 46.317,65.715 46.500 C 65.405 47.684,67.155 46.311,71.333 42.089 C 73.396 40.006,75.699 37.697,76.452 36.958 C 77.205 36.220,77.775 35.540,77.718 35.449 C 77.662 35.357,77.690 35.328,77.780 35.384 C 77.997 35.518,79.212 34.272,79.045 34.088 C 78.974 34.010,79.003 33.996,79.109 34.057 C 79.342 34.190,83.827 29.547,84.113 28.877 C 84.525 27.911,84.301 26.828,83.340 25.147 C 82.106 22.990,80.693 21.000,80.395 21.000 C 80.259 21.000,80.195 20.922,80.254 20.826 C 80.443 20.521,75.958 15.667,75.487 15.667 C 75.412 15.667,75.140 15.468,74.884 15.225 C 72.630 13.096,65.532 9.564,60.250 7.943 C 54.371 6.139,46.824 5.406,40.417 6.016 M87.089 68.176 C 85.621 69.286,82.839 72.153,82.936 72.455 C 83.016 72.702,83.003 72.710,82.853 72.500 C 82.659 72.228,76.260 78.414,76.438 78.702 C 76.486 78.779,76.451 78.821,76.360 78.796 C 76.212 78.755,72.343 82.514,67.950 86.968 C 65.340 89.615,65.647 85.268,65.548 120.979 C 65.476 146.656,65.499 151.564,65.690 151.684 C 65.856 151.790,65.861 151.829,65.709 151.831 C 65.544 151.833,65.502 154.203,65.507 163.089 C 65.512 171.321,65.563 174.314,65.699 174.230 C 65.814 174.159,65.838 174.191,65.761 174.315 C 65.590 174.592,66.098 175.316,66.597 175.505 C 67.472 175.838,87.135 175.716,87.727 175.374 C 88.926 174.682,88.832 177.486,88.835 142.500 C 88.839 108.050,88.810 109.130,89.831 106.016 C 90.378 104.347,91.782 101.348,92.178 101.000 C 92.274 100.916,93.474 99.344,94.068 98.523 C 94.243 98.281,94.933 97.600,95.600 97.010 C 96.268 96.420,96.784 95.888,96.748 95.829 C 96.711 95.770,96.776 95.722,96.892 95.722 C 97.008 95.722,97.570 95.405,98.140 95.018 C 103.807 91.169,113.424 90.489,119.765 93.488 C 120.554 93.861,121.267 94.167,121.350 94.167 C 121.432 94.167,121.500 94.250,121.500 94.351 C 121.500 94.453,121.616 94.491,121.759 94.436 C 121.901 94.382,121.974 94.407,121.922 94.492 C 121.811 94.671,123.335 95.772,123.583 95.692 C 123.675 95.663,123.692 95.697,123.620 95.769 C 123.549 95.840,123.934 96.352,124.477 96.907 C 125.373 97.824,127.333 100.535,127.333 100.857 C 127.333 100.930,127.465 100.947,127.625 100.896 C 127.847 100.824,127.862 100.841,127.691 100.963 C 127.474 101.119,127.650 101.733,127.989 102.000 C 128.047 102.046,128.411 103.058,128.797 104.250 C 130.166 108.470,130.063 105.634,130.162 141.833 C 130.260 177.672,130.160 174.810,131.328 175.414 C 131.975 175.749,137.804 175.786,138.158 175.458 C 138.337 175.292,138.359 175.292,138.265 175.458 C 138.171 175.624,139.612 175.667,145.231 175.667 L 152.315 175.667 152.782 175.264 L 153.250 174.862 153.250 142.389 C 153.250 107.192,153.281 108.503,152.317 103.250 C 151.241 97.391,147.497 87.227,146.502 87.462 C 146.396 87.488,146.359 87.426,146.421 87.326 C 146.855 86.624,140.014 78.512,139.207 78.771 C 138.998 78.839,138.977 78.822,139.131 78.710 C 139.336 78.563,138.728 78.042,136.333 76.311 C 135.185 75.480,133.326 74.485,133.139 74.601 C 133.032 74.666,132.994 74.645,133.051 74.552 C 133.505 73.818,124.331 70.778,119.583 70.088 C 115.114 69.438,106.406 69.461,105.273 70.125 C 105.194 70.171,104.852 70.230,104.514 70.255 C 103.586 70.324,100.496 71.191,100.596 71.354 C 100.644 71.432,100.570 71.453,100.431 71.399 C 100.067 71.259,97.972 71.987,98.108 72.206 C 98.171 72.308,98.140 72.337,98.037 72.273 C 97.641 72.028,92.236 74.541,92.442 74.874 C 92.502 74.972,92.480 75.007,92.393 74.953 C 92.305 74.899,91.937 75.031,91.575 75.246 C 91.213 75.462,90.317 75.955,89.583 76.342 C 88.850 76.730,88.195 77.130,88.128 77.232 C 88.060 77.334,88.004 75.223,88.003 72.542 C 88.001 69.860,87.944 67.669,87.875 67.671 C 87.806 67.674,87.452 67.901,87.089 68.176 M328.995 69.389 C 328.947 69.440,328.253 69.496,327.454 69.513 C 326.654 69.531,326.000 69.591,326.000 69.648 C 326.000 69.704,325.644 69.752,325.208 69.753 C 322.142 69.767,317.136 70.878,312.667 72.538 C 310.342 73.401,305.117 75.951,305.246 76.160 C 305.286 76.225,305.220 76.278,305.099 76.278 C 304.633 76.278,300.388 79.305,298.250 81.162 C 294.659 84.280,287.872 91.817,288.284 92.229 C 288.342 92.286,288.310 92.333,288.214 92.333 C 288.007 92.333,287.444 93.148,287.444 93.446 C 287.444 93.559,287.389 93.618,287.322 93.576 C 287.181 93.489,285.281 96.479,285.279 96.792 C 285.278 96.906,285.227 97.000,285.164 97.000 C 284.567 97.000,280.517 106.837,280.115 109.262 C 280.071 109.530,279.878 110.388,279.686 111.167 C 278.242 117.046,278.192 128.292,279.584 134.250 C 279.712 134.800,279.942 135.885,280.094 136.662 C 280.351 137.977,281.212 141.267,281.447 141.833 C 281.504 141.971,281.577 142.222,281.610 142.392 C 281.695 142.833,283.080 146.343,283.469 147.107 C 283.650 147.461,283.801 147.809,283.805 147.880 C 283.847 148.573,287.169 154.088,287.374 153.803 C 287.489 153.642,287.505 153.664,287.434 153.884 C 287.327 154.216,287.490 154.505,288.818 156.333 C 295.536 165.580,306.288 173.300,316.417 176.149 C 317.150 176.355,317.956 176.603,318.208 176.699 C 318.550 176.829,318.732 176.820,318.921 176.663 C 319.060 176.547,319.223 176.501,319.282 176.560 C 319.341 176.618,319.301 176.667,319.194 176.667 C 318.541 176.667,319.205 176.973,320.375 177.212 C 325.425 178.244,333.246 178.639,336.333 178.019 C 336.929 177.899,337.642 177.772,337.917 177.737 C 338.842 177.619,339.333 177.474,339.333 177.320 C 339.333 177.236,339.413 177.167,339.510 177.167 C 339.607 177.167,339.635 177.250,339.572 177.351 C 339.498 177.471,339.568 177.503,339.771 177.443 C 339.943 177.392,340.565 177.229,341.154 177.080 C 341.742 176.931,342.980 176.559,343.904 176.253 C 344.827 175.947,346.617 175.388,347.879 175.012 C 350.432 174.252,351.862 173.681,351.734 173.474 C 351.687 173.399,351.756 173.378,351.887 173.428 C 353.077 173.885,364.880 166.212,364.556 165.192 C 364.489 164.981,364.506 164.969,364.628 165.139 C 364.753 165.314,364.859 165.270,365.126 164.931 C 365.312 164.694,365.537 164.500,365.626 164.500 C 365.801 164.500,367.976 162.261,369.599 160.409 C 372.780 156.781,372.757 156.592,368.703 153.312 C 366.322 151.385,362.749 148.443,360.883 146.873 C 360.201 146.298,359.561 145.879,359.462 145.940 C 359.363 146.001,359.327 145.978,359.383 145.888 C 359.438 145.798,358.756 145.126,357.867 144.395 C 354.495 141.623,354.551 141.620,352.132 144.667 C 351.440 145.537,350.696 146.436,350.479 146.663 C 350.261 146.891,350.108 147.153,350.139 147.247 C 350.169 147.340,350.141 147.363,350.076 147.298 C 350.010 147.233,349.423 147.670,348.770 148.271 C 348.117 148.871,346.796 149.888,345.833 150.529 C 344.871 151.171,344.104 151.770,344.129 151.860 C 344.154 151.951,344.104 151.981,344.016 151.927 C 343.850 151.824,340.825 153.133,340.648 153.384 C 340.592 153.463,340.479 153.517,340.398 153.503 C 340.200 153.469,337.606 154.202,337.500 154.322 C 337.454 154.374,337.267 154.434,337.083 154.456 C 336.900 154.477,336.075 154.606,335.250 154.741 C 331.478 155.360,327.813 155.221,323.833 154.307 C 323.696 154.276,323.602 154.344,323.625 154.458 C 323.648 154.573,323.588 154.667,323.493 154.667 C 323.397 154.667,323.341 154.544,323.368 154.393 C 323.405 154.187,323.090 154.010,322.083 153.668 C 319.163 152.676,315.531 150.581,313.169 148.524 C 312.153 147.640,309.324 144.833,309.449 144.833 C 309.480 144.833,309.139 144.365,308.691 143.792 C 308.243 143.219,307.592 142.300,307.244 141.750 C 306.896 141.200,306.543 140.704,306.458 140.648 C 306.374 140.592,306.312 140.498,306.321 140.439 C 306.329 140.380,306.036 139.734,305.669 139.004 C 303.540 134.769,302.541 130.992,302.034 125.250 C 301.901 123.736,302.052 121.062,302.415 118.522 C 302.550 117.571,302.621 116.727,302.571 116.647 C 302.521 116.566,302.554 116.500,302.644 116.500 C 302.733 116.500,302.857 116.256,302.919 115.958 C 303.331 113.961,304.911 109.645,305.693 108.375 C 305.877 108.077,305.965 107.832,305.889 107.831 C 305.812 107.829,305.833 107.773,305.934 107.706 C 306.147 107.565,307.500 105.367,307.500 105.164 C 307.500 105.089,307.559 105.003,307.631 104.972 C 307.702 104.942,308.131 104.429,308.583 103.833 C 310.559 101.230,313.993 98.048,316.865 96.157 C 317.662 95.632,318.262 95.145,318.199 95.075 C 318.135 95.004,318.174 94.999,318.285 95.062 C 318.396 95.126,319.019 94.909,319.670 94.582 C 321.096 93.864,323.845 92.936,325.333 92.671 C 325.929 92.565,326.529 92.420,326.667 92.349 C 326.804 92.279,328.379 92.232,330.167 92.246 C 334.348 92.277,336.025 92.564,340.250 93.971 C 340.983 94.215,341.682 94.404,341.803 94.391 C 341.923 94.378,341.978 94.411,341.925 94.464 C 341.811 94.578,344.096 95.667,344.449 95.667 C 344.580 95.667,344.645 95.733,344.595 95.814 C 344.496 95.974,346.277 97.110,346.519 97.042 C 346.600 97.019,346.648 97.062,346.625 97.137 C 346.602 97.213,347.068 97.678,347.660 98.172 C 349.113 99.384,350.737 101.086,352.293 103.027 C 353.951 105.095,355.099 105.711,355.866 104.943 C 355.989 104.821,356.178 104.689,356.287 104.652 C 356.742 104.494,359.507 101.925,359.432 101.729 C 359.381 101.597,359.442 101.552,359.593 101.610 C 359.731 101.663,360.106 101.462,360.463 101.143 C 360.809 100.835,361.460 100.283,361.910 99.917 C 362.361 99.550,363.455 98.650,364.341 97.917 C 365.228 97.183,367.090 95.654,368.479 94.519 C 372.679 91.086,372.736 90.931,370.705 88.362 C 369.299 86.583,368.612 85.847,368.452 85.947 C 368.358 86.004,368.329 85.975,368.387 85.881 C 368.521 85.665,367.937 85.123,367.751 85.291 C 367.675 85.360,367.664 85.328,367.726 85.220 C 367.983 84.772,362.941 80.259,359.716 78.048 C 357.328 76.413,352.808 73.911,351.989 73.772 C 351.857 73.750,351.490 73.595,351.173 73.427 C 350.291 72.961,347.812 72.160,347.620 72.279 C 347.521 72.340,347.499 72.303,347.567 72.192 C 347.633 72.087,347.611 72.000,347.520 72.000 C 347.428 72.000,347.307 72.075,347.250 72.167 C 347.193 72.258,347.058 72.327,346.948 72.320 C 346.805 72.311,346.808 72.284,346.958 72.223 C 347.073 72.177,347.167 72.079,347.167 72.006 C 347.167 71.837,345.699 71.461,345.506 71.580 C 345.427 71.629,345.337 71.606,345.306 71.529 C 345.213 71.297,341.829 70.508,339.470 70.168 C 336.081 69.680,329.206 69.169,328.995 69.389 M212.083 69.695 C 211.167 69.782,210.394 69.916,210.367 69.992 C 210.340 70.069,210.171 70.093,209.991 70.046 C 209.591 69.941,206.819 70.429,205.341 70.865 C 204.741 71.041,204.063 71.222,203.833 71.266 C 203.084 71.409,200.301 72.368,199.167 72.874 C 198.938 72.976,198.713 73.065,198.667 73.072 C 198.254 73.133,196.027 74.242,196.095 74.353 C 196.144 74.432,196.076 74.455,195.943 74.404 C 195.465 74.220,188.234 78.371,188.443 78.709 C 188.508 78.815,188.471 78.835,188.349 78.760 C 187.741 78.384,180.572 84.676,177.837 87.985 C 176.070 90.124,174.146 92.832,174.261 93.018 C 174.312 93.100,174.279 93.167,174.188 93.167 C 173.568 93.167,168.585 103.297,168.930 103.856 C 168.980 103.935,168.944 104.000,168.852 104.000 C 168.629 104.000,167.453 107.790,167.602 108.030 C 167.667 108.135,167.644 108.172,167.551 108.115 C 167.345 107.988,166.927 109.748,167.098 110.023 C 167.166 110.133,167.146 110.174,167.053 110.116 C 166.880 110.009,166.278 112.443,166.421 112.674 C 166.466 112.746,166.429 112.830,166.340 112.861 C 165.813 113.043,164.962 121.242,165.045 125.345 C 165.139 130.007,165.853 135.921,166.434 136.862 C 166.488 136.949,166.570 137.257,166.615 137.545 C 167.164 141.029,171.866 151.773,172.824 151.734 C 173.151 151.721,173.174 151.749,172.963 151.903 C 172.741 152.065,172.756 152.154,173.079 152.626 C 173.282 152.922,173.509 153.108,173.584 153.040 C 173.659 152.972,173.666 153.011,173.600 153.126 C 173.487 153.321,174.073 154.347,174.369 154.472 C 174.441 154.503,174.500 154.606,174.500 154.701 C 174.500 155.044,176.023 157.005,176.203 156.894 C 176.309 156.829,176.337 156.859,176.271 156.966 C 175.957 157.475,182.873 165.095,183.217 164.620 C 183.319 164.479,183.338 164.502,183.277 164.693 C 183.215 164.886,183.498 165.208,184.220 165.769 C 184.786 166.210,185.287 166.611,185.333 166.660 C 185.883 167.253,188.698 169.217,190.833 170.499 C 200.452 176.272,214.610 179.010,226.082 177.315 C 226.724 177.220,227.550 177.105,227.917 177.059 C 228.798 176.949,232.071 176.251,233.778 175.809 C 234.871 175.526,235.123 175.403,235.054 175.187 C 234.984 174.964,234.998 174.959,235.137 175.154 C 235.412 175.541,241.796 173.255,242.195 172.627 C 242.268 172.511,242.329 172.474,242.331 172.544 C 242.333 172.669,244.336 171.724,244.500 171.520 C 244.546 171.463,244.872 171.283,245.226 171.119 C 246.727 170.425,251.333 167.166,251.333 166.798 C 251.333 166.695,251.382 166.659,251.440 166.718 C 251.692 166.970,255.731 163.076,255.593 162.715 C 255.544 162.587,255.578 162.529,255.669 162.585 C 255.897 162.726,255.881 161.238,255.649 160.781 C 255.355 160.201,247.789 152.675,247.610 152.785 C 247.521 152.840,247.495 152.810,247.551 152.718 C 247.701 152.476,241.498 146.381,240.965 146.247 C 240.722 146.186,240.363 146.188,240.166 146.250 C 239.733 146.388,235.898 150.001,235.962 150.210 C 235.988 150.292,235.931 150.311,235.837 150.253 C 235.744 150.194,235.667 150.226,235.667 150.323 C 235.667 150.421,235.592 150.500,235.500 150.500 C 235.409 150.500,234.971 150.761,234.527 151.080 C 228.405 155.478,219.268 157.111,211.667 155.166 C 210.521 154.873,209.508 154.614,209.417 154.592 C 209.325 154.570,209.063 154.472,208.833 154.376 C 208.604 154.280,208.021 154.044,207.538 153.851 C 207.055 153.659,206.286 153.313,205.830 153.082 C 205.373 152.850,205.000 152.703,205.000 152.754 C 205.000 152.805,204.906 152.770,204.792 152.677 C 204.677 152.583,203.683 151.912,202.583 151.186 C 201.483 150.459,200.101 149.445,199.512 148.932 C 198.923 148.419,198.380 148.000,198.304 148.000 C 198.229 148.000,198.167 147.920,198.167 147.822 C 198.167 147.562,196.298 145.669,196.139 145.767 C 196.065 145.813,196.042 145.751,196.089 145.629 C 196.136 145.507,195.901 145.109,195.568 144.745 C 195.235 144.381,194.972 144.064,194.984 144.040 C 195.061 143.884,194.430 143.190,194.289 143.277 C 194.194 143.336,194.163 143.307,194.222 143.213 C 194.331 143.036,192.591 139.847,192.265 139.628 C 192.165 139.560,192.148 139.504,192.228 139.503 C 192.307 139.501,192.249 139.313,192.099 139.083 C 191.949 138.854,191.861 138.667,191.904 138.667 C 191.947 138.667,191.792 138.235,191.560 137.708 C 190.414 135.103,189.137 131.808,189.235 131.709 C 189.283 131.662,207.090 131.634,228.808 131.648 C 271.367 131.675,268.971 131.732,269.393 130.676 C 269.693 129.927,269.809 123.667,269.523 123.667 C 269.444 123.667,269.409 123.395,269.446 123.063 C 269.614 121.537,268.757 115.436,267.822 111.500 C 266.920 107.707,264.607 101.056,264.340 101.489 C 264.275 101.594,264.222 101.470,264.222 101.214 C 264.222 100.612,261.144 94.368,260.665 94.000 C 260.606 93.954,260.347 93.526,260.089 93.049 C 259.832 92.572,259.482 92.031,259.311 91.848 C 259.140 91.664,259.000 91.461,259.000 91.397 C 259.000 91.291,257.600 89.410,256.136 87.547 C 255.832 87.161,255.493 86.876,255.383 86.914 C 255.274 86.952,255.220 86.888,255.265 86.771 C 255.460 86.263,247.424 78.988,246.975 79.266 C 246.897 79.314,246.833 79.278,246.833 79.187 C 246.833 78.997,244.122 77.192,242.500 76.303 C 239.882 74.866,239.022 74.440,237.161 73.658 C 234.664 72.607,230.818 71.317,230.071 71.279 C 229.758 71.263,229.501 71.202,229.501 71.144 C 229.500 71.030,229.514 71.033,227.083 70.512 C 223.018 69.640,216.447 69.282,212.083 69.695 M221.334 91.734 C 222.021 91.868,223.333 92.214,224.250 92.502 C 225.167 92.791,226.042 93.037,226.196 93.049 C 226.350 93.061,226.431 93.143,226.377 93.231 C 226.321 93.321,226.398 93.344,226.556 93.284 C 226.709 93.225,226.833 93.242,226.833 93.320 C 226.833 93.399,227.152 93.589,227.542 93.742 C 229.875 94.657,233.964 97.481,236.216 99.731 C 236.685 100.200,237.184 100.567,237.326 100.547 C 237.478 100.525,237.499 100.547,237.378 100.601 C 237.245 100.660,237.530 101.116,238.183 101.888 C 238.739 102.545,239.612 103.721,240.124 104.500 C 240.636 105.279,241.137 105.992,241.236 106.084 C 241.335 106.176,241.435 106.344,241.458 106.458 C 241.481 106.572,241.800 107.331,242.166 108.146 C 242.533 108.961,242.833 109.711,242.833 109.814 C 242.833 110.037,244.869 110.022,215.265 110.018 C 191.351 110.016,191.358 110.016,191.820 109.422 C 191.894 109.328,192.008 109.025,192.073 108.750 C 193.695 101.933,204.992 92.943,213.520 91.683 C 214.196 91.583,214.938 91.468,215.167 91.428 C 215.967 91.287,220.096 91.492,221.334 91.734 M237.958 124.448 C 237.798 124.490,237.535 124.490,237.375 124.448 C 237.215 124.406,237.346 124.372,237.667 124.372 C 237.987 124.372,238.119 124.406,237.958 124.448 " stroke="none" fill="#241c24" fill-rule="evenodd"></path><path id="path4" d="" stroke="none" fill="#f4444c" fill-rule="evenodd"></path></g></svg>